<svg xmlns="http://www.w3.org/2000/svg" width="19" height="19" fill="none" viewBox="0 0 19 19">
    <g fill="#8E8E8E" clip-path="url(#clip0)">
        <path d="M8.367 0C3.754 0 0 3.754 0 8.367c0 4.614 3.754 8.367 8.367 8.367 4.614 0 8.367-3.753 8.367-8.367C16.734 3.754 12.981 0 8.367 0zm0 15.19c-3.762 0-6.822-3.06-6.822-6.823 0-3.762 3.06-6.822 6.822-6.822s6.823 3.06 6.823 6.822-3.06 6.823-6.823 6.823z"/>
        <path d="M18.773 17.681l-4.428-4.428c-.302-.302-.79-.302-1.092 0-.302.302-.302.79 0 1.092l4.428 4.428c.15.151.348.227.546.227.197 0 .395-.076.546-.227.302-.301.302-.79 0-1.092z"/>
    </g>
    <defs>
        <clipPath id="clip0">
            <path fill="#fff" d="M0 0H19V19H0z"/>
        </clipPath>
    </defs>
</svg>
