<svg xmlns="http://www.w3.org/2000/svg" width="17" height="17" fill="none" viewBox="0 0 17 17">
    <path fill="#fff" d="M8.5 0C3.802 0 0 3.802 0 8.5S3.802 17 8.5 17 17 13.198 17 8.5 13.198 0 8.5 0zm0 15.672c-3.964 0-7.172-3.208-7.172-7.172 0-3.964 3.208-7.172 7.172-7.172 3.964 0 7.172 3.208 7.172 7.172 0 3.964-3.208 7.172-7.172 7.172z"/>
    <path fill="#fff" d="M8.5 7.116c-.367 0-.664.298-.664.664v4.277c0 .366.297.664.664.664.367 0 .664-.298.664-.664V7.78c0-.366-.297-.664-.664-.664zM8.5 6.304c.495 0 .896-.402.896-.897s-.4-.896-.896-.896c-.495 0-.896.401-.896.896s.4.897.896.897z"/>
</svg>
