<svg xmlns="http://www.w3.org/2000/svg" width="20" height="20" fill="none" viewBox="0 0 20 20">
    <g fill="#2F85FE" clip-path="url(#clip0)">
        <path d="M14.219 6.72c.69 0 1.25-.559 1.25-1.25 0-.69-.56-1.25-1.25-1.25s-1.25.56-1.25 1.25c0 .691.56 1.25 1.25 1.25z"/>
        <path d="M19.784 6.483c-.417-1.062-1.182-2.595-2.457-3.864C16.056 1.354 14.539.61 13.49.21c-1.151-.44-2.459-.163-3.332.706L7.091 3.97c-.91.905-1.171 2.298-.652 3.465.161.363.336.717.523 1.06L.23 15.226c-.147.147-.229.346-.229.553v3.438c0 .431.35.78.781.78H4.22c.431 0 .781-.349.781-.78V17.81h1.406c.432 0 .781-.35.781-.781v-1.406h1.407c.431 0 .781-.35.781-.782 0-.431-.35-.78-.781-.78H6.406c-.431 0-.781.349-.781.78v1.407H4.219c-.432 0-.782.35-.782.781v1.406H1.562v-2.332L8.49 9.176c.255-.255.303-.65.116-.958-.27-.446-.52-.923-.74-1.417-.257-.58-.126-1.273.328-1.724l3.067-3.053c.438-.436 1.095-.575 1.672-.354.907.346 2.215.984 3.291 2.056 1.084 1.079 1.743 2.405 2.106 3.328.226.576.089 1.23-.35 1.668l-3.105 3.09c-.452.45-1.127.582-1.72.335-.488-.203-.961-.444-1.406-.717-.367-.226-.849-.11-1.074.257-.226.368-.11.849.257 1.075.514.315 1.06.593 1.623.828 1.178.49 2.52.226 3.422-.67l3.105-3.09c.88-.877 1.156-2.19.702-3.347z"/>
    </g>
    <defs>
        <clipPath id="clip0">
            <path fill="#fff" d="M0 0H20V20H0z"/>
        </clipPath>
    </defs>
</svg>
