<svg xmlns="http://www.w3.org/2000/svg" width="20" height="20" fill="none" viewBox="0 0 20 20">
    <g clip-path="url(#clip0)">
        <path fill="#2F85FE" d="M19.412 3.236H.588C.263 3.236 0 3.5 0 3.822v2.344c0 .324.263.586.588.586h3.467c.273 1.336 1.46 2.344 2.88 2.344h1.301v6.494H5.58c-.325 0-.588.262-.588.585 0 .324.263.587.588.587h8.842c.325 0 .588-.263.588-.587 0-.323-.263-.585-.588-.585h-2.657V9.096h1.3c1.42 0 2.608-1.008 2.881-2.344h3.467c.325 0 .588-.262.588-.586V3.822c0-.323-.263-.586-.588-.586zM10.588 15.59H9.412V9.096h1.176v6.494zm2.476-7.666H6.936c-.767 0-1.42-.49-1.663-1.172h9.454c-.242.682-.896 1.172-1.663 1.172zm5.76-2.344H1.176V4.408h17.648V5.58z"/>
    </g>
    <defs>
        <clipPath id="clip0">
            <path fill="#fff" d="M0 0H20V20H0z"/>
        </clipPath>
    </defs>
</svg>
