<svg xmlns="http://www.w3.org/2000/svg" width="93" height="27" fill="none" viewBox="0 0 93 27">
    <path fill="#F6BA3B" fill-rule="evenodd" d="M33.341 8.063c0 4.451-3.593 8.063-8.026 8.063-4.428 0-8.024-3.612-8.024-8.063C17.291 3.61 20.887 0 25.315 0c4.433 0 8.026 3.61 8.026 8.063z" clip-rule="evenodd"/>
    <path fill="#FEFEFE" fill-rule="evenodd" d="M23.498 5.436c0 .702-.565 1.274-1.266 1.274-.7 0-1.268-.572-1.268-1.274 0-.703.568-1.271 1.268-1.271.701 0 1.266.568 1.266 1.27zm5.76.001c0 .703-.566 1.273-1.265 1.273-.702.003-1.27-.57-1.27-1.273s.568-1.272 1.27-1.272c.7 0 1.265.569 1.265 1.272zm1.61 3.551c-.318 2.885-2.718 5.128-5.644 5.128-2.92 0-5.323-2.243-5.64-5.128-.013-.146.051-.426.364-.426.275 0 .337.232.375.377l.014.049c.534 2.159 2.537 3.847 4.887 3.847 2.353 0 4.357-1.688 4.89-3.847l.01-.04c.037-.145.098-.386.379-.386.314 0 .378.28.366.426z" clip-rule="evenodd"/>
    <path fill="#fff" fill-rule="evenodd" d="M38.472 2.882c0-.76.468-1.263 1.121-1.263.652 0 1.118.504 1.118 1.263v3.096h.032c.467-.583 1.338-.789 2.04-.789 1.756 0 3.061 1.14 3.061 3.065v4.364c0 .76-.466 1.267-1.118 1.267-.655 0-1.123-.508-1.123-1.267V8.65c0-1.058-.651-1.562-1.46-1.562-.917 0-1.432.68-1.432 1.562v3.97c0 .758-.466 1.266-1.118 1.266-.653 0-1.12-.508-1.12-1.267V2.882zm-4.777 4.5h-.487c-.592 0-.956-.38-.956-.993 0-.57.41-.996.956-.996h.487V4.036c0-.756.454-1.26 1.09-1.26.64 0 1.097.504 1.097 1.26v1.357h.621c.564 0 1.048.27 1.048.996 0 .71-.484.993-1.048.993h-.621v5.238c0 .758-.457 1.265-1.096 1.265-.637 0-1.091-.507-1.091-1.265V7.382zm16.866-.444c1.043 0 1.669.724 1.794 1.696h-3.572c.11-.94.78-1.696 1.778-1.696zm.388 4.773c-1.044 0-1.965-.507-2.119-1.6h4.786c.686 0 .983-.324.983-.988 0-1.845-1.608-4.033-4.038-4.033-2.371 0-4.025 2.047-4.025 4.296 0 2.449 1.687 4.268 4.213 4.268 1.667 0 3.663-.928 3.663-1.881 0-.477-.435-.956-.922-.956-.246 0-.527.155-.855.336-.46.254-1.011.558-1.686.558zM0 16.426c0-.781.382-1.356 1.194-1.356h3.799c.732 0 1.085.53 1.085 1.074 0 .531-.367 1.075-1.085 1.075H2.297v2.27h2.51c.752 0 1.117.53 1.117 1.076 0 .53-.383 1.073-1.117 1.073h-2.51v2.366h2.831c.736 0 1.089.528 1.089 1.072 0 .53-.37 1.075-1.089 1.075h-3.95C.505 26.151 0 25.684 0 24.987v-8.561zm8.39-1.592c-.677 0-1.179.437-1.179 1.219v8.88c0 .78.502 1.218 1.179 1.218.675 0 1.18-.437 1.18-1.218V19.1h.03l4.988 6.534c.222.282.691.517.99.517.676 0 1.18-.437 1.18-1.218v-8.88c0-.782-.504-1.219-1.18-1.219-.676 0-1.178.437-1.178 1.219v5.91h-.033L9.38 15.347c-.202-.281-.693-.514-.991-.514zM20.267 17.2h-1.67c-.737 0-1.043-.542-1.043-1.069 0-.538.384-1.064 1.043-1.064h5.643c.662 0 1.044.526 1.044 1.064 0 .527-.308 1.069-1.044 1.069h-1.672v7.749c0 .771-.488 1.203-1.148 1.203-.66 0-1.153-.432-1.153-1.203v-7.75zm7.038-2.13c-.83 0-1.221.575-1.221 1.357v8.56c0 .698.517 1.165 1.205 1.165h4.039c.735 0 1.111-.546 1.111-1.075 0-.544-.36-1.072-1.111-1.072H28.43v-2.366h2.566c.753 0 1.145-.544 1.145-1.073 0-.545-.375-1.075-1.145-1.075h-2.566v-2.271h2.756c.736 0 1.111-.544 1.111-1.075 0-.544-.36-1.074-1.11-1.074h-3.883zm8.054 4.862h1.608c.858 0 1.451-.51 1.451-1.374 0-.88-.593-1.358-1.451-1.358h-1.608v2.732zm-2.342-3.66c0-.74.423-1.205 1.204-1.205h2.746c2.404 0 3.889 1.065 3.889 3.49 0 1.698-1.299 2.67-2.888 2.918l2.652 2.81c.218.231.314.462.314.68 0 .6-.485 1.187-1.172 1.187-.282 0-.657-.106-.907-.4l-3.465-4.155h-.03v3.352c0 .771-.5 1.203-1.172 1.203-.67 0-1.171-.432-1.171-1.203V16.27zm9.344.928h1.675v7.749c0 .771.49 1.203 1.15 1.203.661 0 1.15-.432 1.15-1.203v-7.75h1.672c.735 0 1.041-.541 1.041-1.068 0-.538-.38-1.064-1.041-1.064H42.36c-.656 0-1.041.526-1.041 1.064 0 .527.307 1.069 1.041 1.069zm8.562 4.543h3.005l-1.471-4.507h-.033l-1.502 4.507zm-.175-5.641c.268-.716.887-1.29 1.693-1.29.838 0 1.425.544 1.693 1.29l3.104 8.45c.093.25.125.467.125.576 0 .605-.504 1.024-1.093 1.024-.665 0-.994-.341-1.154-.809l-.473-1.46H50.24l-.47 1.446c-.162.482-.495.823-1.142.823-.633 0-1.17-.466-1.17-1.087 0-.25.076-.433.11-.513l3.18-8.45zm8.241-1.267c-.633 0-1.103.437-1.103 1.219v8.88c0 .78.47 1.218 1.103 1.218.632 0 1.102-.437 1.102-1.218v-8.88c0-.782-.47-1.219-1.102-1.219zm2.312 1.219c0-.782.506-1.219 1.19-1.219.3 0 .794.233 1.001.514l5.033 6.614h.032v-5.91c0-.781.508-1.218 1.19-1.218.684 0 1.193.437 1.193 1.219v8.88c0 .78-.51 1.218-1.192 1.218-.301 0-.778-.235-.999-.517L63.713 19.1h-.032v5.833c0 .78-.507 1.218-1.19 1.218-.684 0-1.19-.437-1.19-1.218v-8.88zM72.7 15.07c-.828 0-1.22.575-1.22 1.356v8.56c0 .698.516 1.165 1.206 1.165h4.037c.737 0 1.112-.546 1.112-1.075 0-.544-.36-1.072-1.112-1.072h-2.894v-2.366h2.564c.753 0 1.146-.544 1.146-1.073 0-.545-.378-1.075-1.147-1.075H73.83v-2.271h2.755c.734 0 1.11-.544 1.11-1.075 0-.544-.362-1.074-1.11-1.074H72.7zm8.506 4.861h1.609c.859 0 1.45-.51 1.45-1.374 0-.88-.591-1.358-1.45-1.358h-1.609v2.732zm-2.342-3.66c0-.74.422-1.205 1.202-1.205h2.749c2.401 0 3.885 1.065 3.885 3.49 0 1.698-1.294 2.67-2.886 2.918l2.654 2.81c.218.233.312.462.312.68 0 .6-.483 1.187-1.171 1.187-.283 0-.659-.106-.907-.4l-3.463-4.155h-.033v3.352c0 .771-.498 1.203-1.172 1.203-.67 0-1.17-.432-1.17-1.203V16.27zm11.214-1.38c-.426 0-.566.191-.566.424v2.031c0 .248.073.412.36.412s.36-.164.36-.412v-1.428h.012l.483 1.428c.08.24.147.412.42.412.274 0 .34-.18.421-.412l.48-1.428h.014v1.428c0 .248.074.412.361.412s.36-.164.36-.412v-2.03c0-.234-.14-.425-.567-.425-.248 0-.427.04-.593.424l-.475 1.249-.475-1.249c-.167-.384-.347-.423-.595-.423zm-3.113.659h.528v1.796c0 .248.153.412.4.412.248 0 .403-.164.403-.412V15.55h.527c.174 0 .3-.104.3-.31 0-.207-.126-.31-.3-.31h-1.858c-.173 0-.3.103-.3.31 0 .206.127.31.3.31z" clip-rule="evenodd"/>
</svg>
